<?xml version="1.0" standalone="no"?>
<svg xmlns:xlink="http://www.w3.org/1999/xlink" id="wave" style="transform:rotate(0deg); transition: 0.3s" viewBox="0 0 1440 330" version="1.1" xmlns="http://www.w3.org/2000/svg"><defs><linearGradient id="sw-gradient-0" x1="0" x2="0" y1="1" y2="0"><stop stop-color="rgba(91, 119, 129, 1)" offset="0%"/><stop stop-color="rgba(91, 119, 129, 1)" offset="100%"/></linearGradient></defs><path style="transform:translate(0, 0px); opacity:1" fill="url(#sw-gradient-0)" d="M0,66L40,99C80,132,160,198,240,198C320,198,400,132,480,88C560,44,640,22,720,38.5C800,55,880,110,960,154C1040,198,1120,231,1200,247.5C1280,264,1360,264,1440,236.5C1520,209,1600,154,1680,121C1760,88,1840,77,1920,60.5C2000,44,2080,22,2160,44C2240,66,2320,132,2400,154C2480,176,2560,154,2640,132C2720,110,2800,88,2880,77C2960,66,3040,66,3120,82.5C3200,99,3280,132,3360,154C3440,176,3520,187,3600,198C3680,209,3760,220,3840,192.5C3920,165,4000,99,4080,66C4160,33,4240,33,4320,49.5C4400,66,4480,99,4560,143C4640,187,4720,242,4800,264C4880,286,4960,275,5040,247.5C5120,220,5200,176,5280,154C5360,132,5440,132,5520,143C5600,154,5680,176,5720,187L5760,198L5760,330L5720,330C5680,330,5600,330,5520,330C5440,330,5360,330,5280,330C5200,330,5120,330,5040,330C4960,330,4880,330,4800,330C4720,330,4640,330,4560,330C4480,330,4400,330,4320,330C4240,330,4160,330,4080,330C4000,330,3920,330,3840,330C3760,330,3680,330,3600,330C3520,330,3440,330,3360,330C3280,330,3200,330,3120,330C3040,330,2960,330,2880,330C2800,330,2720,330,2640,330C2560,330,2480,330,2400,330C2320,330,2240,330,2160,330C2080,330,2000,330,1920,330C1840,330,1760,330,1680,330C1600,330,1520,330,1440,330C1360,330,1280,330,1200,330C1120,330,1040,330,960,330C880,330,800,330,720,330C640,330,560,330,480,330C400,330,320,330,240,330C160,330,80,330,40,330L0,330Z"/><defs><linearGradient id="sw-gradient-1" x1="0" x2="0" y1="1" y2="0"><stop stop-color="rgba(91, 119, 129, 1)" offset="0%"/><stop stop-color="rgba(0, 122, 252, 1)" offset="100%"/></linearGradient></defs><path style="transform:translate(0, 50px); opacity:0.9" fill="url(#sw-gradient-1)" d="M0,0L40,22C80,44,160,88,240,88C320,88,400,44,480,27.5C560,11,640,22,720,33C800,44,880,55,960,88C1040,121,1120,176,1200,176C1280,176,1360,121,1440,132C1520,143,1600,220,1680,214.5C1760,209,1840,121,1920,110C2000,99,2080,165,2160,209C2240,253,2320,275,2400,247.5C2480,220,2560,143,2640,104.5C2720,66,2800,66,2880,93.5C2960,121,3040,176,3120,176C3200,176,3280,121,3360,132C3440,143,3520,220,3600,242C3680,264,3760,231,3840,220C3920,209,4000,220,4080,203.5C4160,187,4240,143,4320,126.5C4400,110,4480,121,4560,115.5C4640,110,4720,88,4800,93.5C4880,99,4960,132,5040,170.5C5120,209,5200,253,5280,258.5C5360,264,5440,231,5520,181.5C5600,132,5680,66,5720,33L5760,0L5760,330L5720,330C5680,330,5600,330,5520,330C5440,330,5360,330,5280,330C5200,330,5120,330,5040,330C4960,330,4880,330,4800,330C4720,330,4640,330,4560,330C4480,330,4400,330,4320,330C4240,330,4160,330,4080,330C4000,330,3920,330,3840,330C3760,330,3680,330,3600,330C3520,330,3440,330,3360,330C3280,330,3200,330,3120,330C3040,330,2960,330,2880,330C2800,330,2720,330,2640,330C2560,330,2480,330,2400,330C2320,330,2240,330,2160,330C2080,330,2000,330,1920,330C1840,330,1760,330,1680,330C1600,330,1520,330,1440,330C1360,330,1280,330,1200,330C1120,330,1040,330,960,330C880,330,800,330,720,330C640,330,560,330,480,330C400,330,320,330,240,330C160,330,80,330,40,330L0,330Z"/></svg>