<?xml version="1.0" standalone="no"?>
<svg xmlns:xlink="http://www.w3.org/1999/xlink" id="wave" style="transform:rotate(0deg); transition: 0.3s" viewBox="0 0 1440 340" version="1.1" xmlns="http://www.w3.org/2000/svg"><defs><linearGradient id="sw-gradient-0" x1="0" x2="0" y1="1" y2="0"><stop stop-color="rgba(32, 223, 127, 1)" offset="0%"/><stop stop-color="rgba(32, 223, 127, 1)" offset="100%"/></linearGradient></defs><path style="transform:translate(0, 0px); opacity:1" fill="url(#sw-gradient-0)" d="M0,204L60,198.3C120,193,240,181,360,192.7C480,204,600,238,720,232.3C840,227,960,181,1080,164.3C1200,147,1320,159,1440,164.3C1560,170,1680,170,1800,158.7C1920,147,2040,125,2160,147.3C2280,170,2400,238,2520,260.7C2640,283,2760,261,2880,249.3C3000,238,3120,238,3240,215.3C3360,193,3480,147,3600,141.7C3720,136,3840,170,3960,187C4080,204,4200,204,4320,192.7C4440,181,4560,159,4680,136C4800,113,4920,91,5040,107.7C5160,125,5280,181,5400,175.7C5520,170,5640,102,5760,62.3C5880,23,6000,11,6120,5.7C6240,0,6360,0,6480,0C6600,0,6720,0,6840,11.3C6960,23,7080,45,7200,79.3C7320,113,7440,159,7560,164.3C7680,170,7800,136,7920,119C8040,102,8160,102,8280,130.3C8400,159,8520,215,8580,243.7L8640,272L8640,340L8580,340C8520,340,8400,340,8280,340C8160,340,8040,340,7920,340C7800,340,7680,340,7560,340C7440,340,7320,340,7200,340C7080,340,6960,340,6840,340C6720,340,6600,340,6480,340C6360,340,6240,340,6120,340C6000,340,5880,340,5760,340C5640,340,5520,340,5400,340C5280,340,5160,340,5040,340C4920,340,4800,340,4680,340C4560,340,4440,340,4320,340C4200,340,4080,340,3960,340C3840,340,3720,340,3600,340C3480,340,3360,340,3240,340C3120,340,3000,340,2880,340C2760,340,2640,340,2520,340C2400,340,2280,340,2160,340C2040,340,1920,340,1800,340C1680,340,1560,340,1440,340C1320,340,1200,340,1080,340C960,340,840,340,720,340C600,340,480,340,360,340C240,340,120,340,60,340L0,340Z"/><defs><linearGradient id="sw-gradient-1" x1="0" x2="0" y1="1" y2="0"><stop stop-color="rgba(73, 104, 115, 1)" offset="0%"/><stop stop-color="rgba(73, 104, 115, 1)" offset="100%"/></linearGradient></defs><path style="transform:translate(0, 50px); opacity:0.9" fill="url(#sw-gradient-1)" d="M0,136L60,113.3C120,91,240,45,360,62.3C480,79,600,159,720,198.3C840,238,960,238,1080,198.3C1200,159,1320,79,1440,90.7C1560,102,1680,204,1800,243.7C1920,283,2040,261,2160,232.3C2280,204,2400,170,2520,147.3C2640,125,2760,113,2880,124.7C3000,136,3120,170,3240,164.3C3360,159,3480,113,3600,113.3C3720,113,3840,159,3960,175.7C4080,193,4200,181,4320,192.7C4440,204,4560,238,4680,260.7C4800,283,4920,295,5040,266.3C5160,238,5280,170,5400,136C5520,102,5640,102,5760,136C5880,170,6000,238,6120,272C6240,306,6360,306,6480,289C6600,272,6720,238,6840,215.3C6960,193,7080,181,7200,192.7C7320,204,7440,238,7560,249.3C7680,261,7800,249,7920,226.7C8040,204,8160,170,8280,130.3C8400,91,8520,45,8580,22.7L8640,0L8640,340L8580,340C8520,340,8400,340,8280,340C8160,340,8040,340,7920,340C7800,340,7680,340,7560,340C7440,340,7320,340,7200,340C7080,340,6960,340,6840,340C6720,340,6600,340,6480,340C6360,340,6240,340,6120,340C6000,340,5880,340,5760,340C5640,340,5520,340,5400,340C5280,340,5160,340,5040,340C4920,340,4800,340,4680,340C4560,340,4440,340,4320,340C4200,340,4080,340,3960,340C3840,340,3720,340,3600,340C3480,340,3360,340,3240,340C3120,340,3000,340,2880,340C2760,340,2640,340,2520,340C2400,340,2280,340,2160,340C2040,340,1920,340,1800,340C1680,340,1560,340,1440,340C1320,340,1200,340,1080,340C960,340,840,340,720,340C600,340,480,340,360,340C240,340,120,340,60,340L0,340Z"/></svg>